<?xml version="1.0" encoding="UTF-8"?>
<svg id="a" data-name="polaroid linework" xmlns="http://www.w3.org/2000/svg" width="16.025" height="23.745" viewBox="0 0 16.025 23.745">
  <path d="M.614,23.78c4.799-.025,9.599-.049,14.398-.074.425-.002.426-.663,0-.661-4.799.025-9.599.049-14.398.074-.425.002-.426.663,0,.661h0Z" fill="#353939" stroke-width="0"/>
  <path d="M1.844,19.645c4.079.014,8.158.028,12.237.041.425.001.426-.66,0-.661-4.079-.014-8.158-.028-12.237-.041-.425-.001-.426.66,0,.661h0Z" fill="#353939" stroke-width="0"/>
  <path d="M15.325.416c-.151,7.647.113,15.3-.038,22.947-.008.426.653.426.661,0,.151-7.647-.113-15.3.038-22.947.008-.426-.653-.426-.661,0h0Z" fill="#353939" stroke-width="0"/>
  <path d="M.151.374C0,8.021.263,15.674.113,23.321c-.008.426.653.426.661,0,.151-7.647-.113-15.3.038-22.947C.82-.052.159-.052.151.374H.151Z" fill="#353939" stroke-width="0"/>
  <path d="M1.888,2.975c4.079.014,8.158.028,12.237.041.425.001.426-.66,0-.661-4.079-.014-8.158-.028-12.237-.041-.425-.001-.426.66,0,.661h0Z" fill="#353939" stroke-width="0"/>
  <path d="M.893.675c4.799-.025,9.599-.049,14.398-.074.425-.002.426-.663,0-.661C10.492-.035,5.693-.011.893.014c-.425.002-.426.663,0,.661h0Z" fill="#353939" stroke-width="0"/>
  <path d="M13.795,2.685c.115,5.507-.146,11.018-.055,16.525.007.425.668.426.661,0-.091-5.507.17-11.018.055-16.525-.009-.425-.67-.426-.661,0h0Z" fill="#353939" stroke-width="0"/>
  <path d="M1.558,2.644c.115,5.507-.146,11.018-.055,16.525.007.425.668.426.661,0-.091-5.507.17-11.018.055-16.525-.009-.425-.67-.426-.661,0h0Z" fill="#353939" stroke-width="0"/>
  <path d="M15.369,23.746c.425,0,.426-.661,0-.661s-.426.661,0,.661h0Z" fill="#353939" stroke-width="0"/>
  <path d="M.73.686C1.156.686,1.156.025.73.025s-.426.661,0,.661h0Z" fill="#353939" stroke-width="0"/>
  <path d="M15.435.627c.425,0,.426-.661,0-.661s-.426.661,0,.661h0Z" fill="#353939" stroke-width="0"/>
  <path d="M15.29,23.714c.425,0,.426-.661,0-.661s-.426.661,0,.661h0Z" fill="#353939" stroke-width="0"/>
  <path d="M15.571.637c.425,0,.426-.661,0-.661s-.426.661,0,.661h0Z" fill="#353939" stroke-width="0"/>
</svg>